<?xml version="1.0" encoding="utf-8"?>
<!-- Generator: Adobe Illustrator 21.0.0, SVG Export Plug-In . SVG Version: 6.00 Build 0)  -->
<svg version="1.1" id="Layer_1" xmlns="http://www.w3.org/2000/svg" xmlns:xlink="http://www.w3.org/1999/xlink" x="0px" y="0px"
	 viewBox="-30 -30 160 160">
<style type="text/css">
	.st0{fill:#5F3916;}
	.st1{fill:#C1272D;}
</style>
<defs>
<pattern id="pat-wave" patternUnits="userSpaceOnUse" x="0" y="0" width="20" height="20">
<g transform="scale(2)">
<path d="M-10 3C-7.5 3 -7.5 1 -5 1C-2.5 1 -2.5 3 0 3C2.5 3 2.5 1 5 1C7.5 1 7.5 3 10 3" fill="none" stroke="#acf" stroke-width="0.5" transform="translate(7.68274 0)"><animateTransform attributeName="transform" type="translate" values="0 0;10 0" keyTimes="0;1" dur="2s" repeatCount="indefinite"></animateTransform></path><path d="M-10 3C-7.5 3 -7.5 1 -5 1C-2.5 1 -2.5 3 0 3C2.5 3 2.5 1 5 1C7.5 1 7.5 3 10 3" transform="translate(7.31726 5)" fill="none" stroke="#acf" stroke-width="0.5"><animateTransform attributeName="transform" type="translate" values="10 5;0 5" keyTimes="0;1" dur="2s" repeatCount="indefinite" begin="-1s"></animateTransform></path>
</g>
</pattern>
<clipPath id="clip-wave">
<path transform="translate(50 50)" d="M-50 -50L50 -50L50 30Q45 35 40 30T30 30T20 30T10 30T0 30T-10 30T-20 30T-30 30T-40 30T-50 30Z"/>
</clipPath>
</defs>
<circle cx="50" cy="50" r="70" fill="url(#pat-wave)"/>
<g clip-path="url(#clip-wave)">
<g transform="translate(50 50)">
<animateTransform attributeName="transform" type="translate" values="50 45;50 55;50 45" keyTimes="0;0.5;1" dur="2s" repeatCount="indefinite" calcMode="spline" keySplines="0.3 0 0.7 1;0.3 0 0.7 1"/>
<g transform="rotate(20)">
<g transform="translate(-50 -50)">
<path class="st0" d="M66,52.467c0.5-4.967-3.451-9.248-6.063-14.867c-1.894-4.075-2.87-8.515-2.87-13.008v-7.412 c0-0.651,0.528-1.179,1.179-1.179h0c0.651,0,1.179-0.528,1.179-1.179v-4.142c0-0.651-0.528-1.179-1.179-1.179H41.754 c-0.651,0-1.179,0.528-1.179,1.179v4.142c0,0.651,0.528,1.179,1.179,1.179h0c0.651,0,1.179,0.528,1.179,1.179v7.412 c0,4.494-0.976,8.933-2.87,13.008C37.451,43.219,34.5,48.5,34,52.467V55.5h32V52.467z"/>
<path class="st0" d="M34,82.352C34,87.68,38.32,92,43.648,92h12.704C61.68,92,66,87.68,66,82.352V81.5H34V82.352z"/>
<rect x="34" y="55.5" class="st1" width="32" height="26"/>
</g>
</g>
</g>
</g>
</svg>

