<?xml version="1.0" encoding="UTF-8"?>
<svg width="480px" height="481px" viewBox="0 0 480 481" version="1.1" xmlns="http://www.w3.org/2000/svg" xmlns:xlink="http://www.w3.org/1999/xlink">
    <!-- Generator: Sketch 49.1 (51147) - http://www.bohemiancoding.com/sketch -->
    <title>icon-xiaba/svg</title>
    <desc>Created with Sketch.</desc>
    <defs/>
    <g id="icon-xiaba/svg" stroke="none" stroke-width="1" fill="none" fill-rule="evenodd">
        <g id="Page-1" transform="translate(114.000000, 196.000000)" fill="#FEFEFE">
            <polygon id="Fill-1" points="42.1937684 3 21.8761468 90 41.9070945 90 47.5933193 65.1416487 55.2075052 32.5136528 62.1743119 3"/>
            <polygon id="Fill-2" points="113.986239 74 134.863007 74 147.376147 26 126.506005 26.0147145"/>
            <polygon id="Fill-3" points="66.7798165 65 86.2497205 65 92.1100917 39 72.5905236 39"/>
            <polygon id="Fill-4" points="2.94919117 3 0 16 111.08254 16 113.986239 3"/>
            <g id="Group-9" transform="translate(140.467890, 0.000000)">
                <path d="M36.7077138,13.0305937 L86.2020704,12.8787188 L76.9654306,52.2495 L27.1154489,52.2495 L36.7077138,13.0305937 Z M93.8944645,89.6923125 L96.925287,76.9798125 L33.6752893,76.9727813 C21.7730636,76.971375 22.4186352,71.4279375 22.4186352,71.4279375 L24.0654034,64.68075 L94.2308665,64.675125 L109.543569,0.1535625 L19.8091162,0.156375 C19.8091162,0.156375 1.25093514,74.5259063 1.13239346,75.362625 C0.592548225,79.1510625 1.68825784,89.6065313 30.135058,89.7049688 L93.8944645,89.6923125 Z" id="Fill-5"/>
                <path d="M67.8071244,32.4527344 C67.8071244,37.7163281 62.9453134,41.9842969 56.9493469,41.9842969 C50.9517785,41.9842969 46.0915695,37.7163281 46.0915695,32.4527344 C46.0915695,27.1891406 50.9517785,22.9211719 56.9493469,22.9211719 C62.9453134,22.9211719 67.8071244,27.1891406 67.8071244,32.4527344" id="Fill-7"/>
            </g>
        </g>
    </g>
</svg>